<?xml version="1.0" standalone="no"?>
<!DOCTYPE svg PUBLIC "-//W3C//DTD SVG 20010904//EN"
 "http://www.w3.org/TR/2001/REC-SVG-20010904/DTD/svg10.dtd">
<svg version="1.0" xmlns="http://www.w3.org/2000/svg"
 width="175.000000pt" height="175.000000pt" viewBox="0 0 175.000000 175.000000"
 preserveAspectRatio="xMidYMid meet">

<g transform="translate(0.000000,175.000000) scale(0.100000,-0.100000)"
fill="#000000" stroke="none">
<path d="M754 1740 c-321 -45 -601 -278 -703 -585 -43 -128 -56 -249 -42 -371
36 -306 207 -552 476 -685 145 -71 231 -92 390 -92 153 0 241 20 375 84 220
104 388 300 459 533 144 469 -139 971 -617 1096 -86 23 -251 32 -338 20z m76
-94 c0 -19 7 -69 15 -111 70 -367 365 -647 736 -697 l89 -12 0 -35 c0 -58 -30
-161 -74 -256 -77 -164 -206 -295 -372 -379 -78 -39 -205 -76 -264 -76 l-36 0
-12 90 c-49 369 -330 665 -697 735 -42 8 -93 15 -112 15 l-35 0 7 53 c11 87
44 187 93 282 66 127 199 260 327 327 91 47 167 73 253 88 82 14 82 13 82 -24z
m275 -3 c103 -32 194 -80 272 -143 159 -129 274 -336 290 -525 l6 -75 -31 0
c-50 0 -167 28 -245 58 -183 71 -351 233 -433 417 -31 71 -64 206 -64 263 l0
43 63 -7 c34 -4 98 -18 142 -31z m-899 -804 c334 -61 601 -353 640 -700 l7
-59 -50 0 c-121 0 -312 76 -430 170 -162 130 -273 332 -298 543 l-7 57 39 0
c22 0 66 -5 99 -11z"/>
</g>
</svg>
